<svg xmlns="http://www.w3.org/2000/svg" width="16" height="16" viewBox="0 0 16 16">
  <path id="instagram_1_" data-name="instagram (1)" d="M7.927,35.723a4.1,4.1,0,1,0,4.1,4.1A4.1,4.1,0,0,0,7.927,35.723Zm0,6.769a2.667,2.667,0,1,1,2.666-2.667,2.672,2.672,0,0,1-2.666,2.667Zm5.226-6.937A.957.957,0,1,1,12.2,34.6.954.954,0,0,1,13.152,35.555Zm2.716.971a4.736,4.736,0,0,0-1.292-3.352,4.765,4.765,0,0,0-3.352-1.292c-1.321-.075-5.279-.075-6.6,0A4.758,4.758,0,0,0,1.273,33.17,4.751,4.751,0,0,0-.019,36.523c-.075,1.321-.075,5.28,0,6.6a4.736,4.736,0,0,0,1.292,3.352,4.771,4.771,0,0,0,3.352,1.292c1.321.075,5.279.075,6.6,0a4.733,4.733,0,0,0,3.352-1.292,4.767,4.767,0,0,0,1.292-3.352C15.944,41.8,15.944,37.847,15.869,36.526Zm-1.706,8.015a2.7,2.7,0,0,1-1.521,1.521c-1.053.418-3.552.321-4.715.321s-3.666.093-4.715-.321a2.7,2.7,0,0,1-1.521-1.521c-.418-1.053-.321-3.552-.321-4.716s-.093-3.667.321-4.716a2.7,2.7,0,0,1,1.521-1.521c1.053-.418,3.552-.321,4.715-.321s3.666-.093,4.715.321a2.7,2.7,0,0,1,1.521,1.521c.418,1.053.321,3.552.321,4.716S14.58,43.492,14.163,44.541Z" transform="translate(0.075 -31.825)"/>
</svg>
