<svg xmlns="http://www.w3.org/2000/svg" width="187.68" height="33" viewBox="0 0 187.68 33">
  <defs>
    <style>
      .cls-1 {
        fill: #29c4fc;
      }

      .cls-1, .cls-2 {
        fill-rule: evenodd;
      }

      .cls-2 {
        fill: #fff;
      }
    </style>
  </defs>
  <g id="Layer_x0020_1" transform="translate(0)">
    <path id="Path_2" data-name="Path 2" class="cls-1" d="M9.2,13.4l7.605,9.686a2.666,2.666,0,0,1,.633,2.539c-.5,1.138-1.8,1-2.674,1H1.442L0,32.9H20.43c4.446,0,6.406-.418,8.582-2.876,2.62-2.957,1.846-6.224-.754-9.35L19.292,9.814c-.674-.835-1.576-1.879-1.024-2.775.593-.95,1.61-.761,3.065-.754l8.912-.007h16.5l-3.853,4.675c-3.765,4.412-2.856,3.658-8.871,3.658H27.443l5.2,6.278.478.579,6.056,7.315C43.07,33.3,42.377,32.9,49.16,32.9h6.332L46.162,21.63l.613-.741,5.18-6.278,1.482-1.8c.5-.606.99-1.212,1.5-1.812,1.745-2.088,1.92-2.721,1.953-3.792S56.5,5.173,54.724,3.489C51.558.115,50.669,0,43.96,0h-27.9C11.047,0,8.218,1.32,6.864,3.954,5.153,7.275,6.837,10.528,9.2,13.4Z"/>
    <path id="Path_3" data-name="Path 3" class="cls-2" d="M115.526,22.039c-.64,2.789,1.462,4.426,5.618,4.426h7.14l.855-3.745H122l1.522-6.662h7.14l.855-3.739h-7.133l.835-3.739h-6.635l-2.923,12.839-.135.62Zm-3.382-2.223-4.877-5.9c-.364-.458-.855-1.024-.552-1.509.317-.519.876-.411,1.664-.411h7.6l.781-3.415H105.51c-2.721,0-4.257.714-5,2.149-.93,1.805-.013,3.57,1.273,5.133l4.129,5.261a1.441,1.441,0,0,1,.344,1.381c-.269.626-.977.546-1.448.546H97.561l-.781,3.415h11.108c2.412,0,3.483-.229,4.661-1.563a3.354,3.354,0,0,0,.8-1.468c.007-.02.013-.04.02-.067a4.258,4.258,0,0,0-1.226-3.55ZM194.056,15.3,191.6,26.013l-.1.451h6.628l.108-.458,1.192-4.742h1.475c3.456,0,3.193-.094,4.85,2.715l6.77,11.734h6.743l-9.424-16.321,7.073-7.073H214.3c-5.012,0-4.21.04-7.47,3.355-2.189,2.236-1.63,1.852-4.89,1.852h-1.65l1.1-5.207h-6.655l-.667,2.964-.007.02ZM175.262,26.464h14.28l.855-3.745h-14.28l1.522-6.662h14.28l.855-3.739H178.5c-5.827,0-6.756.559-7.484,3.739l-1.367,5.982C169,24.827,171.106,26.464,175.262,26.464Zm-15.277,0c5.833,0,6.763-.559,7.49-3.745l1.367-5.975c.64-2.789-1.462-4.426-5.618-4.426h-14.28l-.855,3.739h14.28l-1.529,6.662h-8.959l7.632-5.059H147.718l-.8,3.509-.35,1.549c-.768,3.348,1.859,3.745,3.523,3.745h9.9Zm-27.429-10.03-2.3,10.037h6.628l2.385-10.4h6.83l.855-3.745h-6.83c-3.132-.027-4.325-.115-5.726.835C133.337,13.888,132.993,14.589,132.555,16.434Z" transform="translate(-31.588 -2.8)"/>
    <path id="Path_4" data-name="Path 4" class="cls-1" d="M174.939,44.522l2.216,1.812-1.529.007-2.216-1.819h-1.192l-.458,1.819h-.909l1.28-5.113h4.614a.793.793,0,0,1,.748,1l-.344,1.381a1.329,1.329,0,0,1-1.152.909h-1.058Zm11.478.788H183.2l-.728,1.031h-1.031l3.624-5.113h1.462L187.6,46.34h-.963Zm11.472.034c.04-.135.081-.276.121-.411l.034-.121h.916l-.061.216c-.047.148-.088.3-.135.445a1.328,1.328,0,0,1-1.145.909c-.694.027-1.388.047-2.081.047s-1.367-.02-2.054-.047a.8.8,0,0,1-.754-1q.333-1.657.822-3.287a1.309,1.309,0,0,1,1.145-.909c.694-.034,1.388-.047,2.081-.047s1.374.013,2.061.047a.785.785,0,0,1,.748.99c-.027.148-.061.3-.088.445l-.034.135h-.9l.04-.2c.034-.141.061-.276.088-.418,0-.013.007-.034,0-.04s-.02-.013-.034-.013c-.674-.034-1.347-.047-2.021-.047s-1.361.013-2.041.047a.19.19,0,0,0-.1.04.3.3,0,0,0-.067.094c-.317,1.058-.586,2.129-.8,3.206a.115.115,0,0,0,.007.047.05.05,0,0,0,.034.007c.667.034,1.34.047,2.014.047s1.361-.013,2.041-.047a.148.148,0,0,0,.1-.04A.2.2,0,0,0,197.889,45.343Zm6.9,1h-.909l1.28-5.113h.909Zm7.477-4.149-1.037,4.149h-.909l1.28-5.113h1.219l2.8,4.176,1.044-4.176h.909l-1.28,5.113h-1.219Zm11.93,2.055.222-.9h3.227a.788.788,0,0,1,.748,1l-.168.687c-.047.148-.088.3-.135.445a1.312,1.312,0,0,1-1.138.909c-.694.027-1.388.047-2.081.047s-1.374-.02-2.061-.047a.8.8,0,0,1-.754-1q.333-1.657.829-3.287a1.292,1.292,0,0,1,1.138-.909c.694-.034,1.388-.047,2.081-.047s1.374.013,2.061.047a.792.792,0,0,1,.754.99c-.034.148-.061.3-.094.445l-.027.135h-.909l.047-.2c.027-.141.054-.276.081-.418a.042.042,0,0,0,0-.04c-.007-.013-.02-.013-.034-.013-.674-.034-1.347-.047-2.014-.047s-1.361.013-2.041.047a.17.17,0,0,0-.1.04.177.177,0,0,0-.067.094c-.317,1.058-.586,2.129-.8,3.206a.057.057,0,0,0,0,.047c.007.007.027.007.034.007.674.034,1.347.047,2.021.047s1.354-.013,2.034-.047a.17.17,0,0,0,.1-.04.139.139,0,0,0,.067-.094c.04-.135.081-.276.121-.411l.162-.64a.042.042,0,0,0,0-.04c-.007-.013-.027-.013-.027-.013l-3.274.007Zm-51.383-2.122-.377,1.489,3.664.013a.341.341,0,0,0,.1-.047.16.16,0,0,0,.061-.088l.33-1.314c.007-.013.007-.034-.007-.04a.027.027,0,0,0-.027-.013h-3.745Zm11.027,2.284h2.391l-.478-2.284h-.3Z" transform="translate(-55.764 -13.428)"/>
  </g>
</svg>
